<?xml version="1.0" encoding="UTF-8"?>
<svg xmlns="http://www.w3.org/2000/svg" width="1024" height="1024" viewBox="0 0 1024 1024">
  <defs>
    <clipPath id="sq"><path d="M1023.50,512.00 L1023.46,620.96 L1023.32,655.76 L1023.10,681.05 L1022.78,701.62 L1022.38,719.27 L1021.88,734.88 L1021.30,748.97 L1020.62,761.86 L1019.86,773.78 L1019.00,784.90 L1018.05,795.33 L1017.01,805.16 L1015.88,814.48 L1014.65,823.33 L1013.34,831.77 L1011.92,839.83 L1010.42,847.55 L1008.82,854.96 L1007.12,862.08 L1005.33,868.92 L1003.44,875.51 L1001.46,881.87 L999.37,888.00 L997.19,893.92 L994.90,899.64 L992.51,905.18 L990.02,910.52 L987.43,915.70 L984.73,920.71 L981.93,925.55 L979.01,930.25 L975.99,934.79 L972.85,939.19 L969.60,943.44 L966.23,947.56 L962.74,951.55 L959.14,955.41 L955.41,959.14 L951.55,962.74 L947.56,966.23 L943.44,969.60 L939.19,972.85 L934.79,975.99 L930.25,979.01 L925.55,981.93 L920.71,984.73 L915.70,987.43 L910.52,990.02 L905.18,992.51 L899.64,994.90 L893.92,997.19 L888.00,999.37 L881.87,1001.46 L875.51,1003.44 L868.92,1005.33 L862.08,1007.12 L854.96,1008.82 L847.55,1010.42 L839.83,1011.92 L831.77,1013.34 L823.33,1014.65 L814.48,1015.88 L805.16,1017.01 L795.33,1018.05 L784.90,1019.00 L773.78,1019.86 L761.86,1020.62 L748.97,1021.30 L734.88,1021.88 L719.27,1022.38 L701.62,1022.78 L681.05,1023.10 L655.76,1023.32 L620.96,1023.46 L512.00,1023.50 L403.04,1023.46 L368.24,1023.32 L342.95,1023.10 L322.38,1022.78 L304.73,1022.38 L289.12,1021.88 L275.03,1021.30 L262.14,1020.62 L250.22,1019.86 L239.10,1019.00 L228.67,1018.05 L218.84,1017.01 L209.52,1015.88 L200.67,1014.65 L192.23,1013.34 L184.17,1011.92 L176.45,1010.42 L169.04,1008.82 L161.92,1007.12 L155.08,1005.33 L148.49,1003.44 L142.13,1001.46 L136.00,999.37 L130.08,997.19 L124.36,994.90 L118.82,992.51 L113.48,990.02 L108.30,987.43 L103.29,984.73 L98.45,981.93 L93.75,979.01 L89.21,975.99 L84.81,972.85 L80.56,969.60 L76.44,966.23 L72.45,962.74 L68.59,959.14 L64.86,955.41 L61.26,951.55 L57.77,947.56 L54.40,943.44 L51.15,939.19 L48.01,934.79 L44.99,930.25 L42.07,925.55 L39.27,920.71 L36.57,915.70 L33.98,910.52 L31.49,905.18 L29.10,899.64 L26.81,893.92 L24.63,888.00 L22.54,881.87 L20.56,875.51 L18.67,868.92 L16.88,862.08 L15.18,854.96 L13.58,847.55 L12.08,839.83 L10.66,831.77 L9.35,823.33 L8.12,814.48 L6.99,805.16 L5.95,795.33 L5.00,784.90 L4.14,773.78 L3.38,761.86 L2.70,748.97 L2.12,734.88 L1.62,719.27 L1.22,701.62 L0.90,681.05 L0.68,655.76 L0.54,620.96 L0.50,512.00 L0.54,403.04 L0.68,368.24 L0.90,342.95 L1.22,322.38 L1.62,304.73 L2.12,289.12 L2.70,275.03 L3.38,262.14 L4.14,250.22 L5.00,239.10 L5.95,228.67 L6.99,218.84 L8.12,209.52 L9.35,200.67 L10.66,192.23 L12.08,184.17 L13.58,176.45 L15.18,169.04 L16.88,161.92 L18.67,155.08 L20.56,148.49 L22.54,142.13 L24.63,136.00 L26.81,130.08 L29.10,124.36 L31.49,118.82 L33.98,113.48 L36.57,108.30 L39.27,103.29 L42.07,98.45 L44.99,93.75 L48.01,89.21 L51.15,84.81 L54.40,80.56 L57.77,76.44 L61.26,72.45 L64.86,68.59 L68.59,64.86 L72.45,61.26 L76.44,57.77 L80.56,54.40 L84.81,51.15 L89.21,48.01 L93.75,44.99 L98.45,42.07 L103.29,39.27 L108.30,36.57 L113.48,33.98 L118.82,31.49 L124.36,29.10 L130.08,26.81 L136.00,24.63 L142.13,22.54 L148.49,20.56 L155.08,18.67 L161.92,16.88 L169.04,15.18 L176.45,13.58 L184.17,12.08 L192.23,10.66 L200.67,9.35 L209.52,8.12 L218.84,6.99 L228.67,5.95 L239.10,5.00 L250.22,4.14 L262.14,3.38 L275.03,2.70 L289.12,2.12 L304.73,1.62 L322.38,1.22 L342.95,0.90 L368.24,0.68 L403.04,0.54 L512.00,0.50 L620.96,0.54 L655.76,0.68 L681.05,0.90 L701.62,1.22 L719.27,1.62 L734.88,2.12 L748.97,2.70 L761.86,3.38 L773.78,4.14 L784.90,5.00 L795.33,5.95 L805.16,6.99 L814.48,8.12 L823.33,9.35 L831.77,10.66 L839.83,12.08 L847.55,13.58 L854.96,15.18 L862.08,16.88 L868.92,18.67 L875.51,20.56 L881.87,22.54 L888.00,24.63 L893.92,26.81 L899.64,29.10 L905.18,31.49 L910.52,33.98 L915.70,36.57 L920.71,39.27 L925.55,42.07 L930.25,44.99 L934.79,48.01 L939.19,51.15 L943.44,54.40 L947.56,57.77 L951.55,61.26 L955.41,64.86 L959.14,68.59 L962.74,72.45 L966.23,76.44 L969.60,80.56 L972.85,84.81 L975.99,89.21 L979.01,93.75 L981.93,98.45 L984.73,103.29 L987.43,108.30 L990.02,113.48 L992.51,118.82 L994.90,124.36 L997.19,130.08 L999.37,136.00 L1001.46,142.13 L1003.44,148.49 L1005.33,155.08 L1007.12,161.92 L1008.82,169.04 L1010.42,176.45 L1011.92,184.17 L1013.34,192.23 L1014.65,200.67 L1015.88,209.52 L1017.01,218.84 L1018.05,228.67 L1019.00,239.10 L1019.86,250.22 L1020.62,262.14 L1021.30,275.03 L1021.88,289.12 L1022.38,304.73 L1022.78,322.38 L1023.10,342.95 L1023.32,368.24 L1023.46,403.04 Z"/></clipPath>
    <clipPath id="top"><rect x="0" y="0" width="1024" height="747.5"/></clipPath>
    <clipPath id="bot"><rect x="0" y="747.5" width="1024" height="276.5"/></clipPath>
    
    <linearGradient id="paper" x1="0" y1="0" x2="0" y2="748">
      <stop offset="0%" stop-color="#ffffff"/>
      <stop offset="100%" stop-color="#f7f7f8"/>
    </linearGradient>
    
    <linearGradient id="band" x1="0" y1="748" x2="0" y2="1024">
      <stop offset="0%" stop-color="#6394f0"/>
      <stop offset="100%" stop-color="#4f7fe0"/>
    </linearGradient>
    
    <pattern id="h1" width="19" height="19"
             patternUnits="userSpaceOnUse" patternTransform="rotate(45)">
      <line x1="0" y1="0" x2="0" y2="19" stroke="#d4d4d8" stroke-width="0.4"/>
    </pattern>
    <pattern id="h2" width="26" height="26"
             patternUnits="userSpaceOnUse" patternTransform="rotate(-45)">
      <line x1="0" y1="0" x2="0" y2="26" stroke="#e4e4e7" stroke-width="0.3"/>
    </pattern>
  </defs>

  <g clip-path="url(#sq)">
    <!-- Paper zone -->
    <rect width="1024" height="747.5" fill="url(#paper)"/>
    
    <!-- Crosshatch on paper only -->
    <g clip-path="url(#top)">
      <rect width="1024" height="1024" fill="url(#h1)" opacity="0.50"/>
      <rect width="1024" height="1024" fill="url(#h2)" opacity="0.25"/>
    </g>
    
    <!-- Cerulean band -->
    <rect x="0" y="747.5" width="1024" height="276.5" fill="url(#band)"/>
    
    <!-- Light highlight at band edge -->
    <line x1="0" y1="747.5" x2="1024" y2="747.5" 
          stroke="rgba(255,255,255,0.18)" stroke-width="1.46"/>

    <!-- δ in ink (paper zone) -->
    <g clip-path="url(#top)">
      <path d="M486 221Q486 124 423.5 59.0Q361 -6 261 -6Q163 -6 101.5 56.5Q40 119 40 213Q40 295 100.0 352.5Q160 410 245 410Q265 410 305 402L307 404Q294 412 263.5 428.0Q233 444 211.0 457.0Q189 470 165.5 488.0Q142 506 129.0 528.0Q116 550 116 574Q116 621 147.0 649.0Q178 677 227 677Q280 677 324.5 643.5Q369 610 387 560H361Q344 600 308.5 627.0Q273 654 231 654Q204 654 184.0 639.5Q164 625 164 600Q164 582 188.0 561.5Q212 541 247.5 522.0Q283 503 325.0 473.5Q367 444 402.5 411.5Q438 379 462.0 329.0Q486 279 486 221ZM393 202Q393 247 381.5 285.5Q370 324 338.0 353.0Q306 382 258 382Q194 382 163.0 340.0Q132 298 132 234Q132 199 138.5 164.5Q145 130 160.0 96.5Q175 63 204.0 42.5Q233 22 272 22Q393 22 393 202Z" transform="translate(228.10,822.96) scale(1.079473,-1.079473)" fill="#09090b"/>
    </g>
    
    <!-- δ in white (band zone) -->
    <g clip-path="url(#bot)">
      <path d="M486 221Q486 124 423.5 59.0Q361 -6 261 -6Q163 -6 101.5 56.5Q40 119 40 213Q40 295 100.0 352.5Q160 410 245 410Q265 410 305 402L307 404Q294 412 263.5 428.0Q233 444 211.0 457.0Q189 470 165.5 488.0Q142 506 129.0 528.0Q116 550 116 574Q116 621 147.0 649.0Q178 677 227 677Q280 677 324.5 643.5Q369 610 387 560H361Q344 600 308.5 627.0Q273 654 231 654Q204 654 184.0 639.5Q164 625 164 600Q164 582 188.0 561.5Q212 541 247.5 522.0Q283 503 325.0 473.5Q367 444 402.5 411.5Q438 379 462.0 329.0Q486 279 486 221ZM393 202Q393 247 381.5 285.5Q370 324 338.0 353.0Q306 382 258 382Q194 382 163.0 340.0Q132 298 132 234Q132 199 138.5 164.5Q145 130 160.0 96.5Q175 63 204.0 42.5Q233 22 272 22Q393 22 393 202Z" transform="translate(228.10,822.96) scale(1.079473,-1.079473)" fill="#ffffff"/>
    </g>

    <!-- Inner border -->
    <path d="M1023.50,512.00 L1023.46,620.96 L1023.32,655.76 L1023.10,681.05 L1022.78,701.62 L1022.38,719.27 L1021.88,734.88 L1021.30,748.97 L1020.62,761.86 L1019.86,773.78 L1019.00,784.90 L1018.05,795.33 L1017.01,805.16 L1015.88,814.48 L1014.65,823.33 L1013.34,831.77 L1011.92,839.83 L1010.42,847.55 L1008.82,854.96 L1007.12,862.08 L1005.33,868.92 L1003.44,875.51 L1001.46,881.87 L999.37,888.00 L997.19,893.92 L994.90,899.64 L992.51,905.18 L990.02,910.52 L987.43,915.70 L984.73,920.71 L981.93,925.55 L979.01,930.25 L975.99,934.79 L972.85,939.19 L969.60,943.44 L966.23,947.56 L962.74,951.55 L959.14,955.41 L955.41,959.14 L951.55,962.74 L947.56,966.23 L943.44,969.60 L939.19,972.85 L934.79,975.99 L930.25,979.01 L925.55,981.93 L920.71,984.73 L915.70,987.43 L910.52,990.02 L905.18,992.51 L899.64,994.90 L893.92,997.19 L888.00,999.37 L881.87,1001.46 L875.51,1003.44 L868.92,1005.33 L862.08,1007.12 L854.96,1008.82 L847.55,1010.42 L839.83,1011.92 L831.77,1013.34 L823.33,1014.65 L814.48,1015.88 L805.16,1017.01 L795.33,1018.05 L784.90,1019.00 L773.78,1019.86 L761.86,1020.62 L748.97,1021.30 L734.88,1021.88 L719.27,1022.38 L701.62,1022.78 L681.05,1023.10 L655.76,1023.32 L620.96,1023.46 L512.00,1023.50 L403.04,1023.46 L368.24,1023.32 L342.95,1023.10 L322.38,1022.78 L304.73,1022.38 L289.12,1021.88 L275.03,1021.30 L262.14,1020.62 L250.22,1019.86 L239.10,1019.00 L228.67,1018.05 L218.84,1017.01 L209.52,1015.88 L200.67,1014.65 L192.23,1013.34 L184.17,1011.92 L176.45,1010.42 L169.04,1008.82 L161.92,1007.12 L155.08,1005.33 L148.49,1003.44 L142.13,1001.46 L136.00,999.37 L130.08,997.19 L124.36,994.90 L118.82,992.51 L113.48,990.02 L108.30,987.43 L103.29,984.73 L98.45,981.93 L93.75,979.01 L89.21,975.99 L84.81,972.85 L80.56,969.60 L76.44,966.23 L72.45,962.74 L68.59,959.14 L64.86,955.41 L61.26,951.55 L57.77,947.56 L54.40,943.44 L51.15,939.19 L48.01,934.79 L44.99,930.25 L42.07,925.55 L39.27,920.71 L36.57,915.70 L33.98,910.52 L31.49,905.18 L29.10,899.64 L26.81,893.92 L24.63,888.00 L22.54,881.87 L20.56,875.51 L18.67,868.92 L16.88,862.08 L15.18,854.96 L13.58,847.55 L12.08,839.83 L10.66,831.77 L9.35,823.33 L8.12,814.48 L6.99,805.16 L5.95,795.33 L5.00,784.90 L4.14,773.78 L3.38,761.86 L2.70,748.97 L2.12,734.88 L1.62,719.27 L1.22,701.62 L0.90,681.05 L0.68,655.76 L0.54,620.96 L0.50,512.00 L0.54,403.04 L0.68,368.24 L0.90,342.95 L1.22,322.38 L1.62,304.73 L2.12,289.12 L2.70,275.03 L3.38,262.14 L4.14,250.22 L5.00,239.10 L5.95,228.67 L6.99,218.84 L8.12,209.52 L9.35,200.67 L10.66,192.23 L12.08,184.17 L13.58,176.45 L15.18,169.04 L16.88,161.92 L18.67,155.08 L20.56,148.49 L22.54,142.13 L24.63,136.00 L26.81,130.08 L29.10,124.36 L31.49,118.82 L33.98,113.48 L36.57,108.30 L39.27,103.29 L42.07,98.45 L44.99,93.75 L48.01,89.21 L51.15,84.81 L54.40,80.56 L57.77,76.44 L61.26,72.45 L64.86,68.59 L68.59,64.86 L72.45,61.26 L76.44,57.77 L80.56,54.40 L84.81,51.15 L89.21,48.01 L93.75,44.99 L98.45,42.07 L103.29,39.27 L108.30,36.57 L113.48,33.98 L118.82,31.49 L124.36,29.10 L130.08,26.81 L136.00,24.63 L142.13,22.54 L148.49,20.56 L155.08,18.67 L161.92,16.88 L169.04,15.18 L176.45,13.58 L184.17,12.08 L192.23,10.66 L200.67,9.35 L209.52,8.12 L218.84,6.99 L228.67,5.95 L239.10,5.00 L250.22,4.14 L262.14,3.38 L275.03,2.70 L289.12,2.12 L304.73,1.62 L322.38,1.22 L342.95,0.90 L368.24,0.68 L403.04,0.54 L512.00,0.50 L620.96,0.54 L655.76,0.68 L681.05,0.90 L701.62,1.22 L719.27,1.62 L734.88,2.12 L748.97,2.70 L761.86,3.38 L773.78,4.14 L784.90,5.00 L795.33,5.95 L805.16,6.99 L814.48,8.12 L823.33,9.35 L831.77,10.66 L839.83,12.08 L847.55,13.58 L854.96,15.18 L862.08,16.88 L868.92,18.67 L875.51,20.56 L881.87,22.54 L888.00,24.63 L893.92,26.81 L899.64,29.10 L905.18,31.49 L910.52,33.98 L915.70,36.57 L920.71,39.27 L925.55,42.07 L930.25,44.99 L934.79,48.01 L939.19,51.15 L943.44,54.40 L947.56,57.77 L951.55,61.26 L955.41,64.86 L959.14,68.59 L962.74,72.45 L966.23,76.44 L969.60,80.56 L972.85,84.81 L975.99,89.21 L979.01,93.75 L981.93,98.45 L984.73,103.29 L987.43,108.30 L990.02,113.48 L992.51,118.82 L994.90,124.36 L997.19,130.08 L999.37,136.00 L1001.46,142.13 L1003.44,148.49 L1005.33,155.08 L1007.12,161.92 L1008.82,169.04 L1010.42,176.45 L1011.92,184.17 L1013.34,192.23 L1014.65,200.67 L1015.88,209.52 L1017.01,218.84 L1018.05,228.67 L1019.00,239.10 L1019.86,250.22 L1020.62,262.14 L1021.30,275.03 L1021.88,289.12 L1022.38,304.73 L1022.78,322.38 L1023.10,342.95 L1023.32,368.24 L1023.46,403.04 Z" fill="none" stroke="rgba(0,0,0,0.06)" stroke-width="2.56"/>
  </g>
</svg>