<?xml version="1.0" encoding="UTF-8"?>
<!-- Variant 1: Dawn — The slash as first light cutting through ridgelines -->
<!-- Uses dawn sky gradient + 3-layer ridge depth + mist -->
<svg xmlns="http://www.w3.org/2000/svg" width="1024" height="1024" viewBox="0 0 1024 1024">
  <defs>
    <!-- macOS continuous-curvature squircle -->
    <clipPath id="sq"><path d="M512 0.5C403 0.54 368 0.68 343 0.9C322 1.22 305 1.62 289 2.12C275 2.7 262 3.38 250 4.14C239 5 229 5.95 219 6.99C209 8.12 200 9.35 192 10.66C184 12.08 176 13.58 169 15.18C162 16.88 155 18.67 149 20.56C142 22.54 136 24.63 130 26.81C124 29.1 119 31.49 113 33.98C108 36.57 103 39.27 98 42.07C94 44.99 89 48.01 85 51.15C81 54.4 76 57.77 72 61.26C69 64.86 65 68.59 61 72.45C58 76.44 54 80.56 51 84.81C48 89.21 45 93.75 42 98.45C39 103.29 37 108.3 34 113.48C31 118.82 29 124.36 27 130.08C25 136 23 142.13 21 148.49C19 155.08 17 161.92 15 169.04C14 176.45 12 184.17 11 192.23C9 200.67 8 209.52 7 218.84C6 228.67 5 239.1 4 250.22C3 262.14 3 275.03 2 289.12C2 304.73 1 322.38 1 342.95C1 368.24 1 403.04 1 512C1 620.96 1 655.76 1 681.05C1 701.62 2 719.27 2 734.88C3 748.97 3 761.86 4 773.78C5 784.9 6 795.33 7 805.16C8 814.48 9 823.33 11 831.77C12 839.83 14 847.55 15 854.96C17 862.08 19 868.92 21 875.51C23 881.87 25 888 27 893.92C29 899.64 31 905.18 34 910.52C37 915.7 39 920.71 42 925.55C45 930.25 48 934.79 51 939.19C54 943.44 58 947.56 61 951.55C65 955.41 69 959.14 72 962.74C76 966.23 81 969.6 85 972.85C89 975.99 94 979.01 98 981.93C103 984.73 108 987.43 113 990.02C119 992.51 124 994.9 130 997.19C136 999.37 142 1001.46 149 1003.44C155 1005.33 162 1007.12 169 1008.82C176 1010.42 184 1011.92 192 1013.34C200 1014.65 209 1015.88 219 1017.01C229 1018.05 239 1019 250 1019.86C262 1020.62 275 1021.3 289 1021.88C305 1022.38 322 1022.78 343 1023.1C368 1023.32 403 1023.46 512 1023.5C621 1023.46 656 1023.32 681 1023.1C702 1022.78 719 1022.38 735 1021.88C749 1021.3 762 1020.62 774 1019.86C785 1019 795 1018.05 805 1017.01C815 1015.88 824 1014.65 832 1013.34C840 1011.92 848 1010.42 855 1008.82C862 1007.12 869 1005.33 875 1003.44C882 1001.46 888 999.37 894 997.19C900 994.9 905 992.51 911 990.02C916 987.43 921 984.73 926 981.93C930 979.01 935 975.99 939 972.85C943 969.6 948 966.23 952 962.74C955 959.14 959 955.41 963 951.55C966 947.56 970 943.44 973 939.19C976 934.79 979 930.25 982 925.55C985 920.71 987 915.7 990 910.52C993 905.18 995 899.64 997 893.92C999 888 1001 881.87 1003 875.51C1005 868.92 1007 862.08 1009 854.96C1010 847.55 1012 839.83 1013 831.77C1015 823.33 1016 814.48 1017 805.16C1018 795.33 1019 784.9 1020 773.78C1021 761.86 1021 748.97 1022 734.88C1022 719.27 1023 701.62 1023 681.05C1023 655.76 1023 620.96 1023 512C1023 403.04 1023 368.24 1023 342.95C1023 322.38 1022 304.73 1022 289.12C1021 275.03 1021 262.14 1020 250.22C1019 239.1 1018 228.67 1017 218.84C1016 209.52 1015 200.67 1013 192.23C1012 184.17 1010 176.45 1009 169.04C1007 161.92 1005 155.08 1003 148.49C1001 142.13 999 136 997 130.08C995 124.36 993 118.82 990 113.48C987 108.3 985 103.29 982 98.45C979 93.75 976 89.21 973 84.81C970 80.56 966 76.44 963 72.45C959 68.59 955 64.86 952 61.26C948 57.77 943 54.4 939 51.15C935 48.01 930 44.99 926 42.07C921 39.27 916 36.57 911 33.98C905 31.49 900 29.1 894 26.81C888 24.63 882 22.54 875 20.56C869 18.67 862 16.88 855 15.18C848 13.58 840 12.08 832 10.66C824 9.35 815 8.12 805 6.99C795 5.95 785 5 774 4.14C762 3.38 749 2.7 735 2.12C719 1.62 702 1.22 681 0.9C656 0.68 621 0.54 512 0.5Z"/></clipPath>

    <!-- Dawn sky gradient (from Vista CSS) -->
    <linearGradient id="sky" x1="0" y1="0" x2="0" y2="1024">
      <stop offset="0%" stop-color="#4A5570"/>
      <stop offset="15%" stop-color="#6A6880"/>
      <stop offset="28%" stop-color="#8A7890"/>
      <stop offset="40%" stop-color="#B08898"/>
      <stop offset="50%" stop-color="#D09898"/>
      <stop offset="58%" stop-color="#E0A890"/>
      <stop offset="68%" stop-color="#D0A078"/>
      <stop offset="78%" stop-color="#A08860"/>
      <stop offset="88%" stop-color="#607050"/>
      <stop offset="100%" stop-color="#4A5A42"/>
    </linearGradient>

    <!-- Slash glow -->
    <linearGradient id="slashGlow" x1="0" y1="0" x2="0" y2="1">
      <stop offset="0%" stop-color="#E0A890" stop-opacity="0"/>
      <stop offset="30%" stop-color="#D09898" stop-opacity="0.6"/>
      <stop offset="50%" stop-color="#E0A890" stop-opacity="0.9"/>
      <stop offset="70%" stop-color="#D0A078" stop-opacity="0.6"/>
      <stop offset="100%" stop-color="#A08860" stop-opacity="0"/>
    </linearGradient>

    <filter id="farBlur"><feGaussianBlur in="SourceGraphic" stdDeviation="3"/></filter>
    <filter id="slashBlur"><feGaussianBlur in="SourceGraphic" stdDeviation="12"/></filter>
  </defs>

  <g clip-path="url(#sq)">
    <!-- Sky -->
    <rect width="1024" height="1024" fill="url(#sky)"/>

    <!-- RIDGE LAYER 1 — FAR (opacity 0.35, blur) -->
    <g opacity="0.35" filter="url(#farBlur)">
      <path d="M0 680 L100 650 L200 670 L300 630 L400 655 L500 610 L600 645 L700 620 L800 640 L900 615 L1024 635 L1024 720 L0 720 Z" fill="rgba(100, 120, 95, 1)"/>
    </g>

    <!-- RIDGE LAYER 2 — MID (opacity 0.65) -->
    <g opacity="0.65">
      <path d="M0 720 L50 715 L60 680 L70 715 L130 710 L140 670 L150 710 L220 715 L230 685 L240 715 L320 710 L330 665 L340 710 L420 715 L520 710 L530 670 L540 710 L630 715 L720 708 L730 668 L740 708 L830 715 L900 708 L910 675 L920 708 L1024 712 L1024 760 L0 760 Z" fill="rgba(80, 98, 75, 1)"/>
    </g>

    <!-- RIDGE LAYER 3 — NEAR (full opacity, darkest) -->
    <g>
      <path d="M0 755 L25 750 L35 720 L45 750 L80 745 L90 715 L100 745 L140 750 L155 718 L165 750 L210 745 L225 710 L235 745 L280 750 L320 745 L335 712 L345 745 L390 750 L440 745 L455 715 L465 745 L510 750 L560 745 L575 710 L585 745 L630 748 L680 742 L695 708 L705 742 L750 748 L800 742 L815 715 L825 742 L870 748 L920 742 L935 712 L945 742 L1024 748 L1024 800 L0 800 Z" fill="rgba(55, 68, 52, 0.95)"/>
    </g>

    <!-- Ground -->
    <rect x="0" y="790" width="1024" height="234" fill="rgba(50, 60, 46, 0.9)"/>

    <!-- Mist layers in valleys -->
    <ellipse cx="230" cy="740" rx="220" ry="40" fill="rgba(200, 175, 160, 0.12)"/>
    <ellipse cx="800" cy="735" rx="190" ry="35" fill="rgba(200, 175, 160, 0.10)"/>
    <ellipse cx="512" cy="750" rx="150" ry="25" fill="rgba(220, 190, 170, 0.08)"/>

    <!-- THE SLASH — as a beam of first light -->
    <!-- Glow behind -->
    <line x1="640" y1="180" x2="384" y2="844" stroke="url(#slashGlow)" stroke-width="80" stroke-linecap="round" filter="url(#slashBlur)" opacity="0.5"/>
    <!-- Main slash -->
    <line x1="640" y1="180" x2="384" y2="844" stroke="#E0A890" stroke-width="38" stroke-linecap="round" opacity="0.92"/>
    <!-- Hot core -->
    <line x1="640" y1="180" x2="384" y2="844" stroke="#F0D0B0" stroke-width="14" stroke-linecap="round" opacity="0.7"/>

    <!-- Bear on ridge (tiny, near layer) -->
    <g>
      <ellipse cx="160" cy="738" rx="12" ry="15" fill="rgba(48, 58, 45, 0.65)"/>
      <circle cx="168" cy="725" r="8" fill="rgba(48, 58, 45, 0.65)"/>
      <circle cx="164" cy="720" r="3" fill="rgba(48, 58, 45, 0.55)"/>
      <circle cx="173" cy="720" r="3" fill="rgba(48, 58, 45, 0.55)"/>
    </g>

    <!-- Inner border -->
    <path d="M512 0.5C403 0.54 368 0.68 343 0.9C322 1.22 305 1.62 289 2.12C275 2.7 262 3.38 250 4.14C239 5 229 5.95 219 6.99C209 8.12 200 9.35 192 10.66C184 12.08 176 13.58 169 15.18C162 16.88 155 18.67 149 20.56C142 22.54 136 24.63 130 26.81C124 29.1 119 31.49 113 33.98C108 36.57 103 39.27 98 42.07C94 44.99 89 48.01 85 51.15C81 54.4 76 57.77 72 61.26C69 64.86 65 68.59 61 72.45C58 76.44 54 80.56 51 84.81C48 89.21 45 93.75 42 98.45C39 103.29 37 108.3 34 113.48C31 118.82 29 124.36 27 130.08C25 136 23 142.13 21 148.49C19 155.08 17 161.92 15 169.04C14 176.45 12 184.17 11 192.23C9 200.67 8 209.52 7 218.84C6 228.67 5 239.1 4 250.22C3 262.14 3 275.03 2 289.12C2 304.73 1 322.38 1 342.95C1 368.24 1 403.04 1 512C1 620.96 1 655.76 1 681.05C1 701.62 2 719.27 2 734.88C3 748.97 3 761.86 4 773.78C5 784.9 6 795.33 7 805.16C8 814.48 9 823.33 11 831.77C12 839.83 14 847.55 15 854.96C17 862.08 19 868.92 21 875.51C23 881.87 25 888 27 893.92C29 899.64 31 905.18 34 910.52C37 915.7 39 920.71 42 925.55C45 930.25 48 934.79 51 939.19C54 943.44 58 947.56 61 951.55C65 955.41 69 959.14 72 962.74C76 966.23 81 969.6 85 972.85C89 975.99 94 979.01 98 981.93C103 984.73 108 987.43 113 990.02C119 992.51 124 994.9 130 997.19C136 999.37 142 1001.46 149 1003.44C155 1005.33 162 1007.12 169 1008.82C176 1010.42 184 1011.92 192 1013.34C200 1014.65 209 1015.88 219 1017.01C229 1018.05 239 1019 250 1019.86C262 1020.62 275 1021.3 289 1021.88C305 1022.38 322 1022.78 343 1023.1C368 1023.32 403 1023.46 512 1023.5C621 1023.46 656 1023.32 681 1023.1C702 1022.78 719 1022.38 735 1021.88C749 1021.3 762 1020.62 774 1019.86C785 1019 795 1018.05 805 1017.01C815 1015.88 824 1014.65 832 1013.34C840 1011.92 848 1010.42 855 1008.82C862 1007.12 869 1005.33 875 1003.44C882 1001.46 888 999.37 894 997.19C900 994.9 905 992.51 911 990.02C916 987.43 921 984.73 926 981.93C930 979.01 935 975.99 939 972.85C943 969.6 948 966.23 952 962.74C955 959.14 959 955.41 963 951.55C966 947.56 970 943.44 973 939.19C976 934.79 979 930.25 982 925.55C985 920.71 987 915.7 990 910.52C993 905.18 995 899.64 997 893.92C999 888 1001 881.87 1003 875.51C1005 868.92 1007 862.08 1009 854.96C1010 847.55 1012 839.83 1013 831.77C1015 823.33 1016 814.48 1017 805.16C1018 795.33 1019 784.9 1020 773.78C1021 761.86 1021 748.97 1022 734.88C1022 719.27 1023 701.62 1023 681.05C1023 655.76 1023 620.96 1023 512C1023 403.04 1023 368.24 1023 342.95C1023 322.38 1022 304.73 1022 289.12C1021 275.03 1021 262.14 1020 250.22C1019 239.1 1018 228.67 1017 218.84C1016 209.52 1015 200.67 1013 192.23C1012 184.17 1010 176.45 1009 169.04C1007 161.92 1005 155.08 1003 148.49C1001 142.13 999 136 997 130.08C995 124.36 993 118.82 990 113.48C987 108.3 985 103.29 982 98.45C979 93.75 976 89.21 973 84.81C970 80.56 966 76.44 963 72.45C959 68.59 955 64.86 952 61.26C948 57.77 943 54.4 939 51.15C935 48.01 930 44.99 926 42.07C921 39.27 916 36.57 911 33.98C905 31.49 900 29.1 894 26.81C888 24.63 882 22.54 875 20.56C869 18.67 862 16.88 855 15.18C848 13.58 840 12.08 832 10.66C824 9.35 815 8.12 805 6.99C795 5.95 785 5 774 4.14C762 3.38 749 2.7 735 2.12C719 1.62 702 1.22 681 0.9C656 0.68 621 0.54 512 0.5Z" fill="none" stroke="rgba(0,0,0,0.08)" stroke-width="2.5"/>
  </g>
</svg>
