<?xml version="1.0" encoding="UTF-8"?>
<!-- Variant 3: Fire Lookout — The slash as a lookout tower railing post, view through forest -->
<!-- Uses fire lookout sky gradient + 3-layer trees + railing framing -->
<svg xmlns="http://www.w3.org/2000/svg" width="1024" height="1024" viewBox="0 0 1024 1024">
  <defs>
    <clipPath id="sq"><path d="M512 0.5C403 0.54 368 0.68 343 0.9C322 1.22 305 1.62 289 2.12C275 2.7 262 3.38 250 4.14C239 5 229 5.95 219 6.99C209 8.12 200 9.35 192 10.66C184 12.08 176 13.58 169 15.18C162 16.88 155 18.67 149 20.56C142 22.54 136 24.63 130 26.81C124 29.1 119 31.49 113 33.98C108 36.57 103 39.27 98 42.07C94 44.99 89 48.01 85 51.15C81 54.4 76 57.77 72 61.26C69 64.86 65 68.59 61 72.45C58 76.44 54 80.56 51 84.81C48 89.21 45 93.75 42 98.45C39 103.29 37 108.3 34 113.48C31 118.82 29 124.36 27 130.08C25 136 23 142.13 21 148.49C19 155.08 17 161.92 15 169.04C14 176.45 12 184.17 11 192.23C9 200.67 8 209.52 7 218.84C6 228.67 5 239.1 4 250.22C3 262.14 3 275.03 2 289.12C2 304.73 1 322.38 1 342.95C1 368.24 1 403.04 1 512C1 620.96 1 655.76 1 681.05C1 701.62 2 719.27 2 734.88C3 748.97 3 761.86 4 773.78C5 784.9 6 795.33 7 805.16C8 814.48 9 823.33 11 831.77C12 839.83 14 847.55 15 854.96C17 862.08 19 868.92 21 875.51C23 881.87 25 888 27 893.92C29 899.64 31 905.18 34 910.52C37 915.7 39 920.71 42 925.55C45 930.25 48 934.79 51 939.19C54 943.44 58 947.56 61 951.55C65 955.41 69 959.14 72 962.74C76 966.23 81 969.6 85 972.85C89 975.99 94 979.01 98 981.93C103 984.73 108 987.43 113 990.02C119 992.51 124 994.9 130 997.19C136 999.37 142 1001.46 149 1003.44C155 1005.33 162 1007.12 169 1008.82C176 1010.42 184 1011.92 192 1013.34C200 1014.65 209 1015.88 219 1017.01C229 1018.05 239 1019 250 1019.86C262 1020.62 275 1021.3 289 1021.88C305 1022.38 322 1022.78 343 1023.1C368 1023.32 403 1023.46 512 1023.5C621 1023.46 656 1023.32 681 1023.1C702 1022.78 719 1022.38 735 1021.88C749 1021.3 762 1020.62 774 1019.86C785 1019 795 1018.05 805 1017.01C815 1015.88 824 1014.65 832 1013.34C840 1011.92 848 1010.42 855 1008.82C862 1007.12 869 1005.33 875 1003.44C882 1001.46 888 999.37 894 997.19C900 994.9 905 992.51 911 990.02C916 987.43 921 984.73 926 981.93C930 979.01 935 975.99 939 972.85C943 969.6 948 966.23 952 962.74C955 959.14 959 955.41 963 951.55C966 947.56 970 943.44 973 939.19C976 934.79 979 930.25 982 925.55C985 920.71 987 915.7 990 910.52C993 905.18 995 899.64 997 893.92C999 888 1001 881.87 1003 875.51C1005 868.92 1007 862.08 1009 854.96C1010 847.55 1012 839.83 1013 831.77C1015 823.33 1016 814.48 1017 805.16C1018 795.33 1019 784.9 1020 773.78C1021 761.86 1021 748.97 1022 734.88C1022 719.27 1023 701.62 1023 681.05C1023 655.76 1023 620.96 1023 512C1023 403.04 1023 368.24 1023 342.95C1023 322.38 1022 304.73 1022 289.12C1021 275.03 1021 262.14 1020 250.22C1019 239.1 1018 228.67 1017 218.84C1016 209.52 1015 200.67 1013 192.23C1012 184.17 1010 176.45 1009 169.04C1007 161.92 1005 155.08 1003 148.49C1001 142.13 999 136 997 130.08C995 124.36 993 118.82 990 113.48C987 108.3 985 103.29 982 98.45C979 93.75 976 89.21 973 84.81C970 80.56 966 76.44 963 72.45C959 68.59 955 64.86 952 61.26C948 57.77 943 54.4 939 51.15C935 48.01 930 44.99 926 42.07C921 39.27 916 36.57 911 33.98C905 31.49 900 29.1 894 26.81C888 24.63 882 22.54 875 20.56C869 18.67 862 16.88 855 15.18C848 13.58 840 12.08 832 10.66C824 9.35 815 8.12 805 6.99C795 5.95 785 5 774 4.14C762 3.38 749 2.7 735 2.12C719 1.62 702 1.22 681 0.9C656 0.68 621 0.54 512 0.5Z"/></clipPath>

    <!-- Fire Lookout sky gradient -->
    <linearGradient id="sky" x1="0" y1="0" x2="0" y2="1024">
      <stop offset="0%" stop-color="#4A80A0"/>
      <stop offset="20%" stop-color="#6A9AB5"/>
      <stop offset="40%" stop-color="#8AB5C8"/>
      <stop offset="55%" stop-color="#A5C5D0"/>
      <stop offset="68%" stop-color="#90B0A8"/>
      <stop offset="80%" stop-color="#6A9078"/>
      <stop offset="92%" stop-color="#4A7058"/>
      <stop offset="100%" stop-color="#3A5A48"/>
    </linearGradient>

    <filter id="farBlur"><feGaussianBlur in="SourceGraphic" stdDeviation="3"/></filter>
  </defs>

  <g clip-path="url(#sq)">
    <!-- Sky -->
    <rect width="1024" height="1024" fill="url(#sky)"/>

    <!-- Distant ridges -->
    <path d="M0 580 L155 520 L310 545 L465 470 L620 510 L775 460 L930 490 L1024 475 L1024 620 L0 620 Z" fill="rgba(144, 176, 168, 0.5)"/>
    <path d="M0 640 L205 590 L360 615 L515 560 L720 600 L875 570 L1024 585 L1024 670 L0 670 Z" fill="rgba(106, 144, 120, 0.6)"/>

    <!-- TREE LAYER 1 — FAR -->
    <g opacity="0.35" filter="url(#farBlur)">
      <path d="M0 1024 L0 700 L30 695 L38 610 L46 695 L90 690 L98 600 L106 690 L150 695 L158 620 L166 695 L218 690 L226 595 L234 690 L1024 700 L1024 1024 Z" fill="rgba(90, 130, 100, 1)"/>
    </g>

    <!-- TREE LAYER 2 — MID -->
    <g opacity="0.65">
      <path d="M0 1024 L0 690 L38 685 L46 580 L54 685 L100 678 L108 560 L116 678 L175 685 L183 590 L191 685 L260 678 L268 545 L276 678 L335 685 L1024 690 L1024 1024 Z" fill="rgba(74, 112, 88, 1)"/>
      <path d="M770 1024 L770 685 L808 678 L816 565 L824 678 L885 672 L893 540 L901 672 L968 678 L976 580 L984 678 L1024 685 L1024 1024 Z" fill="rgba(74, 112, 88, 1)"/>
    </g>

    <!-- TREE LAYER 3 — NEAR -->
    <g>
      <path d="M0 1024 L0 675 L30 670 L38 540 L46 670 L98 660 L106 520 L114 660 L165 670 L173 555 L181 670 L240 660 L248 510 L256 660 L320 670 L328 555 L336 670 L410 660 L418 520 L426 660 L500 670 L508 555 L516 670 L590 660 L598 520 L606 660 L680 670 L688 555 L696 670 L760 660 L768 520 L776 660 L845 670 L853 540 L861 670 L935 660 L943 520 L951 660 L1024 670 L1024 1024 Z" fill="rgba(58, 92, 70, 0.95)"/>
    </g>

    <!-- Lookout railing cross beam -->
    <rect x="0" y="890" width="1024" height="14" fill="rgba(60, 50, 45, 0.6)"/>

    <!-- THE SLASH — as the lookout railing post, warm wood catching light -->
    <!-- Post shadow -->
    <rect x="480" y="820" width="10" height="204" fill="rgba(40, 30, 25, 0.3)" transform="rotate(-12, 485, 920)"/>
    <!-- Main post -->
    <rect x="475" y="200" width="36" height="824" rx="4" fill="rgba(140, 110, 85, 0.85)" transform="rotate(-12, 493, 612)"/>
    <!-- Wood highlight (left edge catches light) -->
    <rect x="475" y="200" width="10" height="824" rx="2" fill="rgba(180, 150, 120, 0.45)" transform="rotate(-12, 480, 612)"/>
    <!-- Wood grain suggestion -->
    <line x1="488" y1="250" x2="478" y2="950" stroke="rgba(120, 90, 65, 0.3)" stroke-width="1.5" transform="rotate(-12, 483, 600)"/>
    <line x1="498" y1="250" x2="488" y2="950" stroke="rgba(120, 90, 65, 0.2)" stroke-width="1" transform="rotate(-12, 493, 600)"/>

    <!-- Second railing post (background, partial) -->
    <rect x="140" y="820" width="8" height="204" rx="2" fill="rgba(60, 50, 45, 0.55)"/>
    <rect x="340" y="820" width="8" height="204" rx="2" fill="rgba(60, 50, 45, 0.55)"/>
    <rect x="660" y="820" width="8" height="204" rx="2" fill="rgba(60, 50, 45, 0.55)"/>
    <rect x="860" y="820" width="8" height="204" rx="2" fill="rgba(60, 50, 45, 0.55)"/>

    <!-- Railing cable -->
    <line x1="0" y1="850" x2="1024" y2="845" stroke="rgba(60, 50, 45, 0.4)" stroke-width="3"/>

    <!-- Bear on far ridge -->
    <g>
      <ellipse cx="720" cy="580" rx="14" ry="17" fill="rgba(55, 50, 45, 0.55)"/>
      <circle cx="730" cy="565" r="9" fill="rgba(55, 50, 45, 0.55)"/>
      <circle cx="726" cy="560" r="3.5" fill="rgba(55, 50, 45, 0.45)"/>
      <circle cx="735" cy="560" r="3.5" fill="rgba(55, 50, 45, 0.45)"/>
    </g>

    <!-- Warmth overlay -->
    <rect width="1024" height="1024" fill="transparent"/>
    <ellipse cx="200" cy="720" rx="400" ry="300" fill="rgba(201, 165, 90, 0.04)"/>

    <!-- Inner border -->
    <path d="M512 0.5C403 0.54 368 0.68 343 0.9C322 1.22 305 1.62 289 2.12C275 2.7 262 3.38 250 4.14C239 5 229 5.95 219 6.99C209 8.12 200 9.35 192 10.66C184 12.08 176 13.58 169 15.18C162 16.88 155 18.67 149 20.56C142 22.54 136 24.63 130 26.81C124 29.1 119 31.49 113 33.98C108 36.57 103 39.27 98 42.07C94 44.99 89 48.01 85 51.15C81 54.4 76 57.77 72 61.26C69 64.86 65 68.59 61 72.45C58 76.44 54 80.56 51 84.81C48 89.21 45 93.75 42 98.45C39 103.29 37 108.3 34 113.48C31 118.82 29 124.36 27 130.08C25 136 23 142.13 21 148.49C19 155.08 17 161.92 15 169.04C14 176.45 12 184.17 11 192.23C9 200.67 8 209.52 7 218.84C6 228.67 5 239.1 4 250.22C3 262.14 3 275.03 2 289.12C2 304.73 1 322.38 1 342.95C1 368.24 1 403.04 1 512C1 620.96 1 655.76 1 681.05C1 701.62 2 719.27 2 734.88C3 748.97 3 761.86 4 773.78C5 784.9 6 795.33 7 805.16C8 814.48 9 823.33 11 831.77C12 839.83 14 847.55 15 854.96C17 862.08 19 868.92 21 875.51C23 881.87 25 888 27 893.92C29 899.64 31 905.18 34 910.52C37 915.7 39 920.71 42 925.55C45 930.25 48 934.79 51 939.19C54 943.44 58 947.56 61 951.55C65 955.41 69 959.14 72 962.74C76 966.23 81 969.6 85 972.85C89 975.99 94 979.01 98 981.93C103 984.73 108 987.43 113 990.02C119 992.51 124 994.9 130 997.19C136 999.37 142 1001.46 149 1003.44C155 1005.33 162 1007.12 169 1008.82C176 1010.42 184 1011.92 192 1013.34C200 1014.65 209 1015.88 219 1017.01C229 1018.05 239 1019 250 1019.86C262 1020.62 275 1021.3 289 1021.88C305 1022.38 322 1022.78 343 1023.1C368 1023.32 403 1023.46 512 1023.5C621 1023.46 656 1023.32 681 1023.1C702 1022.78 719 1022.38 735 1021.88C749 1021.3 762 1020.62 774 1019.86C785 1019 795 1018.05 805 1017.01C815 1015.88 824 1014.65 832 1013.34C840 1011.92 848 1010.42 855 1008.82C862 1007.12 869 1005.33 875 1003.44C882 1001.46 888 999.37 894 997.19C900 994.9 905 992.51 911 990.02C916 987.43 921 984.73 926 981.93C930 979.01 935 975.99 939 972.85C943 969.6 948 966.23 952 962.74C955 959.14 959 955.41 963 951.55C966 947.56 970 943.44 973 939.19C976 934.79 979 930.25 982 925.55C985 920.71 987 915.7 990 910.52C993 905.18 995 899.64 997 893.92C999 888 1001 881.87 1003 875.51C1005 868.92 1007 862.08 1009 854.96C1010 847.55 1012 839.83 1013 831.77C1015 823.33 1016 814.48 1017 805.16C1018 795.33 1019 784.9 1020 773.78C1021 761.86 1021 748.97 1022 734.88C1022 719.27 1023 701.62 1023 681.05C1023 655.76 1023 620.96 1023 512C1023 403.04 1023 368.24 1023 342.95C1023 322.38 1022 304.73 1022 289.12C1021 275.03 1021 262.14 1020 250.22C1019 239.1 1018 228.67 1017 218.84C1016 209.52 1015 200.67 1013 192.23C1012 184.17 1010 176.45 1009 169.04C1007 161.92 1005 155.08 1003 148.49C1001 142.13 999 136 997 130.08C995 124.36 993 118.82 990 113.48C987 108.3 985 103.29 982 98.45C979 93.75 976 89.21 973 84.81C970 80.56 966 76.44 963 72.45C959 68.59 955 64.86 952 61.26C948 57.77 943 54.4 939 51.15C935 48.01 930 44.99 926 42.07C921 39.27 916 36.57 911 33.98C905 31.49 900 29.1 894 26.81C888 24.63 882 22.54 875 20.56C869 18.67 862 16.88 855 15.18C848 13.58 840 12.08 832 10.66C824 9.35 815 8.12 805 6.99C795 5.95 785 5 774 4.14C762 3.38 749 2.7 735 2.12C719 1.62 702 1.22 681 0.9C656 0.68 621 0.54 512 0.5Z" fill="none" stroke="rgba(0,0,0,0.06)" stroke-width="2.5"/>
  </g>
</svg>
