<?xml version="1.0" encoding="UTF-8"?>
<!-- Variant 2: Campfire — The slash as flame/spark, bear's eyes in darkness -->
<!-- Uses campfire sky gradient + tree silhouettes + warm glow -->
<svg xmlns="http://www.w3.org/2000/svg" width="1024" height="1024" viewBox="0 0 1024 1024">
  <defs>
    <clipPath id="sq"><path d="M512 0.5C403 0.54 368 0.68 343 0.9C322 1.22 305 1.62 289 2.12C275 2.7 262 3.38 250 4.14C239 5 229 5.95 219 6.99C209 8.12 200 9.35 192 10.66C184 12.08 176 13.58 169 15.18C162 16.88 155 18.67 149 20.56C142 22.54 136 24.63 130 26.81C124 29.1 119 31.49 113 33.98C108 36.57 103 39.27 98 42.07C94 44.99 89 48.01 85 51.15C81 54.4 76 57.77 72 61.26C69 64.86 65 68.59 61 72.45C58 76.44 54 80.56 51 84.81C48 89.21 45 93.75 42 98.45C39 103.29 37 108.3 34 113.48C31 118.82 29 124.36 27 130.08C25 136 23 142.13 21 148.49C19 155.08 17 161.92 15 169.04C14 176.45 12 184.17 11 192.23C9 200.67 8 209.52 7 218.84C6 228.67 5 239.1 4 250.22C3 262.14 3 275.03 2 289.12C2 304.73 1 322.38 1 342.95C1 368.24 1 403.04 1 512C1 620.96 1 655.76 1 681.05C1 701.62 2 719.27 2 734.88C3 748.97 3 761.86 4 773.78C5 784.9 6 795.33 7 805.16C8 814.48 9 823.33 11 831.77C12 839.83 14 847.55 15 854.96C17 862.08 19 868.92 21 875.51C23 881.87 25 888 27 893.92C29 899.64 31 905.18 34 910.52C37 915.7 39 920.71 42 925.55C45 930.25 48 934.79 51 939.19C54 943.44 58 947.56 61 951.55C65 955.41 69 959.14 72 962.74C76 966.23 81 969.6 85 972.85C89 975.99 94 979.01 98 981.93C103 984.73 108 987.43 113 990.02C119 992.51 124 994.9 130 997.19C136 999.37 142 1001.46 149 1003.44C155 1005.33 162 1007.12 169 1008.82C176 1010.42 184 1011.92 192 1013.34C200 1014.65 209 1015.88 219 1017.01C229 1018.05 239 1019 250 1019.86C262 1020.62 275 1021.3 289 1021.88C305 1022.38 322 1022.78 343 1023.1C368 1023.32 403 1023.46 512 1023.5C621 1023.46 656 1023.32 681 1023.1C702 1022.78 719 1022.38 735 1021.88C749 1021.3 762 1020.62 774 1019.86C785 1019 795 1018.05 805 1017.01C815 1015.88 824 1014.65 832 1013.34C840 1011.92 848 1010.42 855 1008.82C862 1007.12 869 1005.33 875 1003.44C882 1001.46 888 999.37 894 997.19C900 994.9 905 992.51 911 990.02C916 987.43 921 984.73 926 981.93C930 979.01 935 975.99 939 972.85C943 969.6 948 966.23 952 962.74C955 959.14 959 955.41 963 951.55C966 947.56 970 943.44 973 939.19C976 934.79 979 930.25 982 925.55C985 920.71 987 915.7 990 910.52C993 905.18 995 899.64 997 893.92C999 888 1001 881.87 1003 875.51C1005 868.92 1007 862.08 1009 854.96C1010 847.55 1012 839.83 1013 831.77C1015 823.33 1016 814.48 1017 805.16C1018 795.33 1019 784.9 1020 773.78C1021 761.86 1021 748.97 1022 734.88C1022 719.27 1023 701.62 1023 681.05C1023 655.76 1023 620.96 1023 512C1023 403.04 1023 368.24 1023 342.95C1023 322.38 1022 304.73 1022 289.12C1021 275.03 1021 262.14 1020 250.22C1019 239.1 1018 228.67 1017 218.84C1016 209.52 1015 200.67 1013 192.23C1012 184.17 1010 176.45 1009 169.04C1007 161.92 1005 155.08 1003 148.49C1001 142.13 999 136 997 130.08C995 124.36 993 118.82 990 113.48C987 108.3 985 103.29 982 98.45C979 93.75 976 89.21 973 84.81C970 80.56 966 76.44 963 72.45C959 68.59 955 64.86 952 61.26C948 57.77 943 54.4 939 51.15C935 48.01 930 44.99 926 42.07C921 39.27 916 36.57 911 33.98C905 31.49 900 29.1 894 26.81C888 24.63 882 22.54 875 20.56C869 18.67 862 16.88 855 15.18C848 13.58 840 12.08 832 10.66C824 9.35 815 8.12 805 6.99C795 5.95 785 5 774 4.14C762 3.38 749 2.7 735 2.12C719 1.62 702 1.22 681 0.9C656 0.68 621 0.54 512 0.5Z"/></clipPath>

    <!-- Campfire sky gradient -->
    <linearGradient id="sky" x1="0" y1="0" x2="0" y2="1024">
      <stop offset="0%" stop-color="#2A3540"/>
      <stop offset="20%" stop-color="#3A4550"/>
      <stop offset="40%" stop-color="#4A5560"/>
      <stop offset="55%" stop-color="#5A6068"/>
      <stop offset="70%" stop-color="#4A5048"/>
      <stop offset="85%" stop-color="#3A4038"/>
      <stop offset="100%" stop-color="#2A3028"/>
    </linearGradient>

    <!-- Warm fire glow -->
    <radialGradient id="fireGlow" cx="0.5" cy="0.72" r="0.35">
      <stop offset="0%" stop-color="rgba(255, 140, 40, 0.2)"/>
      <stop offset="50%" stop-color="rgba(255, 100, 30, 0.08)"/>
      <stop offset="100%" stop-color="rgba(255, 100, 30, 0)"/>
    </radialGradient>

    <filter id="farBlur"><feGaussianBlur in="SourceGraphic" stdDeviation="3"/></filter>
    <filter id="glowBlur"><feGaussianBlur in="SourceGraphic" stdDeviation="18"/></filter>
    <filter id="slashGlowBlur"><feGaussianBlur in="SourceGraphic" stdDeviation="10"/></filter>
  </defs>

  <g clip-path="url(#sq)">
    <!-- Night sky -->
    <rect width="1024" height="1024" fill="url(#sky)"/>

    <!-- Stars -->
    <circle cx="115" cy="60" r="2.5" fill="rgba(255, 255, 255, 0.4)"/>
    <circle cx="310" cy="95" r="2" fill="rgba(255, 255, 255, 0.35)"/>
    <circle cx="475" cy="45" r="3" fill="rgba(255, 255, 255, 0.45)"/>
    <circle cx="640" cy="80" r="1.8" fill="rgba(255, 255, 255, 0.3)"/>
    <circle cx="800" cy="40" r="2.5" fill="rgba(255, 255, 255, 0.4)"/>
    <circle cx="910" cy="110" r="2.2" fill="rgba(255, 255, 255, 0.35)"/>
    <circle cx="200" cy="140" r="1.5" fill="rgba(255, 255, 255, 0.25)"/>
    <circle cx="720" cy="130" r="2" fill="rgba(255, 255, 255, 0.3)"/>

    <!-- TREE LAYER 1 — FAR -->
    <g opacity="0.35" filter="url(#farBlur)">
      <path d="M-25 1024 L-25 420 L12 415 L20 240 L28 415 L65 410 L72 220 L80 410 L115 415 L122 270 L130 415 L180 420 L180 1024 Z" fill="rgba(60, 70, 55, 1)"/>
      <path d="M845 1024 L845 410 L882 405 L890 225 L898 405 L935 400 L942 200 L950 400 L985 405 L992 260 L1000 405 L1050 410 L1050 1024 Z" fill="rgba(60, 70, 55, 1)"/>
    </g>

    <!-- TREE LAYER 2 — MID -->
    <g opacity="0.65">
      <path d="M0 1024 L0 440 L38 435 L46 260 L54 435 L100 428 L108 230 L116 428 L165 435 L172 280 L180 435 L240 428 L248 200 L256 428 L295 435 L295 1024 Z" fill="rgba(48, 58, 45, 1)"/>
      <path d="M730 1024 L730 435 L768 428 L776 240 L784 428 L830 420 L838 210 L846 420 L895 428 L902 260 L910 428 L960 435 L968 280 L976 435 L1024 440 L1024 1024 Z" fill="rgba(48, 58, 45, 1)"/>
    </g>

    <!-- TREE LAYER 3 — NEAR -->
    <g>
      <path d="M-12 1024 L-12 480 L25 475 L33 310 L41 475 L88 465 L96 260 L104 465 L155 475 L163 325 L171 475 L218 465 L218 1024 Z" fill="rgba(35, 42, 35, 0.95)"/>
      <path d="M806 1024 L806 475 L843 465 L851 300 L859 465 L905 455 L913 240 L921 455 L968 465 L976 318 L984 465 L1024 470 L1024 1024 Z" fill="rgba(35, 42, 35, 0.95)"/>
    </g>

    <!-- Ground -->
    <rect x="0" y="740" width="1024" height="284" fill="rgba(42, 50, 38, 0.85)"/>
    <path d="M0 740 Q130 732 260 740 T512 735 T770 740 T1024 734 L1024 1024 L0 1024 Z" fill="rgba(38, 45, 35, 0.4)"/>

    <!-- Fire glow on ground and sky -->
    <rect width="1024" height="1024" fill="url(#fireGlow)"/>

    <!-- Fire pit rocks -->
    <ellipse cx="512" cy="790" rx="72" ry="22" fill="rgba(70, 65, 60, 0.7)"/>

    <!-- THE SLASH — rendered as a flame rising from the fire pit -->
    <!-- Outer glow -->
    <line x1="580" y1="250" x2="445" y2="768" stroke="rgba(255, 140, 40, 0.3)" stroke-width="90" stroke-linecap="round" filter="url(#glowBlur)"/>
    <!-- Outer flame (dimmest orange) -->
    <line x1="578" y1="260" x2="447" y2="765" stroke="rgba(200, 100, 40, 0.7)" stroke-width="42" stroke-linecap="round"/>
    <!-- Mid flame (brighter) -->
    <line x1="575" y1="280" x2="450" y2="760" stroke="rgba(230, 140, 50, 0.75)" stroke-width="28" stroke-linecap="round"/>
    <!-- Inner flame (brightest yellow) -->
    <line x1="572" y1="310" x2="453" y2="755" stroke="rgba(255, 200, 80, 0.85)" stroke-width="14" stroke-linecap="round"/>
    <!-- Hot core -->
    <line x1="568" y1="360" x2="458" y2="745" stroke="rgba(255, 230, 150, 0.6)" stroke-width="6" stroke-linecap="round"/>

    <!-- Sparks -->
    <circle cx="505" cy="340" r="3" fill="rgba(255, 180, 60, 0.8)"/>
    <circle cx="520" cy="310" r="2.5" fill="rgba(255, 160, 50, 0.7)"/>
    <circle cx="512" cy="270" r="2" fill="rgba(255, 140, 40, 0.6)"/>
    <circle cx="498" cy="290" r="2.2" fill="rgba(255, 170, 55, 0.7)"/>

    <!-- Bear eyes — catching firelight from the right tree line -->
    <circle cx="830" cy="530" r="4" fill="rgba(200, 150, 80, 0.5)"/>
    <circle cx="848" cy="530" r="4" fill="rgba(200, 150, 80, 0.5)"/>

    <!-- Inner border -->
    <path d="M512 0.5C403 0.54 368 0.68 343 0.9C322 1.22 305 1.62 289 2.12C275 2.7 262 3.38 250 4.14C239 5 229 5.95 219 6.99C209 8.12 200 9.35 192 10.66C184 12.08 176 13.58 169 15.18C162 16.88 155 18.67 149 20.56C142 22.54 136 24.63 130 26.81C124 29.1 119 31.49 113 33.98C108 36.57 103 39.27 98 42.07C94 44.99 89 48.01 85 51.15C81 54.4 76 57.77 72 61.26C69 64.86 65 68.59 61 72.45C58 76.44 54 80.56 51 84.81C48 89.21 45 93.75 42 98.45C39 103.29 37 108.3 34 113.48C31 118.82 29 124.36 27 130.08C25 136 23 142.13 21 148.49C19 155.08 17 161.92 15 169.04C14 176.45 12 184.17 11 192.23C9 200.67 8 209.52 7 218.84C6 228.67 5 239.1 4 250.22C3 262.14 3 275.03 2 289.12C2 304.73 1 322.38 1 342.95C1 368.24 1 403.04 1 512C1 620.96 1 655.76 1 681.05C1 701.62 2 719.27 2 734.88C3 748.97 3 761.86 4 773.78C5 784.9 6 795.33 7 805.16C8 814.48 9 823.33 11 831.77C12 839.83 14 847.55 15 854.96C17 862.08 19 868.92 21 875.51C23 881.87 25 888 27 893.92C29 899.64 31 905.18 34 910.52C37 915.7 39 920.71 42 925.55C45 930.25 48 934.79 51 939.19C54 943.44 58 947.56 61 951.55C65 955.41 69 959.14 72 962.74C76 966.23 81 969.6 85 972.85C89 975.99 94 979.01 98 981.93C103 984.73 108 987.43 113 990.02C119 992.51 124 994.9 130 997.19C136 999.37 142 1001.46 149 1003.44C155 1005.33 162 1007.12 169 1008.82C176 1010.42 184 1011.92 192 1013.34C200 1014.65 209 1015.88 219 1017.01C229 1018.05 239 1019 250 1019.86C262 1020.62 275 1021.3 289 1021.88C305 1022.38 322 1022.78 343 1023.1C368 1023.32 403 1023.46 512 1023.5C621 1023.46 656 1023.32 681 1023.1C702 1022.78 719 1022.38 735 1021.88C749 1021.3 762 1020.62 774 1019.86C785 1019 795 1018.05 805 1017.01C815 1015.88 824 1014.65 832 1013.34C840 1011.92 848 1010.42 855 1008.82C862 1007.12 869 1005.33 875 1003.44C882 1001.46 888 999.37 894 997.19C900 994.9 905 992.51 911 990.02C916 987.43 921 984.73 926 981.93C930 979.01 935 975.99 939 972.85C943 969.6 948 966.23 952 962.74C955 959.14 959 955.41 963 951.55C966 947.56 970 943.44 973 939.19C976 934.79 979 930.25 982 925.55C985 920.71 987 915.7 990 910.52C993 905.18 995 899.64 997 893.92C999 888 1001 881.87 1003 875.51C1005 868.92 1007 862.08 1009 854.96C1010 847.55 1012 839.83 1013 831.77C1015 823.33 1016 814.48 1017 805.16C1018 795.33 1019 784.9 1020 773.78C1021 761.86 1021 748.97 1022 734.88C1022 719.27 1023 701.62 1023 681.05C1023 655.76 1023 620.96 1023 512C1023 403.04 1023 368.24 1023 342.95C1023 322.38 1022 304.73 1022 289.12C1021 275.03 1021 262.14 1020 250.22C1019 239.1 1018 228.67 1017 218.84C1016 209.52 1015 200.67 1013 192.23C1012 184.17 1010 176.45 1009 169.04C1007 161.92 1005 155.08 1003 148.49C1001 142.13 999 136 997 130.08C995 124.36 993 118.82 990 113.48C987 108.3 985 103.29 982 98.45C979 93.75 976 89.21 973 84.81C970 80.56 966 76.44 963 72.45C959 68.59 955 64.86 952 61.26C948 57.77 943 54.4 939 51.15C935 48.01 930 44.99 926 42.07C921 39.27 916 36.57 911 33.98C905 31.49 900 29.1 894 26.81C888 24.63 882 22.54 875 20.56C869 18.67 862 16.88 855 15.18C848 13.58 840 12.08 832 10.66C824 9.35 815 8.12 805 6.99C795 5.95 785 5 774 4.14C762 3.38 749 2.7 735 2.12C719 1.62 702 1.22 681 0.9C656 0.68 621 0.54 512 0.5Z" fill="none" stroke="rgba(255,255,255,0.04)" stroke-width="2.5"/>
  </g>
</svg>
